<?xml version="1.0" encoding="UTF-8" standalone="no"?>
<!-- Created with Inkscape (http://www.inkscape.org/) -->

<svg
   width="121.05144mm"
   height="94.338631mm"
   viewBox="0 0 121.05144 94.338631"
   version="1.1"
   id="svg5"
   inkscape:version="1.1.1 (3bf5ae0, 2021-09-20)"
   sodipodi:docname="kttt-logo.svg"
   xmlns:inkscape="http://www.inkscape.org/namespaces/inkscape"
   xmlns:sodipodi="http://sodipodi.sourceforge.net/DTD/sodipodi-0.dtd"
   xmlns="http://www.w3.org/2000/svg"
   xmlns:svg="http://www.w3.org/2000/svg">
  <sodipodi:namedview
     id="namedview7"
     pagecolor="#ffffff"
     bordercolor="#666666"
     borderopacity="1.0"
     inkscape:pageshadow="2"
     inkscape:pageopacity="0.0"
     inkscape:pagecheckerboard="0"
     inkscape:document-units="mm"
     showgrid="false"
     inkscape:zoom="3.6203867"
     inkscape:cx="294.44368"
     inkscape:cy="214.47985"
     inkscape:window-width="3840"
     inkscape:window-height="2123"
     inkscape:window-x="4320"
     inkscape:window-y="573"
     inkscape:window-maximized="1"
     inkscape:current-layer="g883"
     fit-margin-top="0"
     fit-margin-left="0"
     fit-margin-right="0"
     fit-margin-bottom="0" />
  <defs
     id="defs2" />
  <g
     inkscape:label="Layer 1"
     inkscape:groupmode="layer"
     id="layer1"
     transform="translate(-36.554588,-47.715413)">
    <g
       id="g883"
       transform="matrix(0.26458333,0,0,0.26458333,14.495143,77.09318)">
      <g
         id="g830" />
      <g
         id="g832" />
      <g
         id="g834" />
      <g
         id="g836" />
      <g
         id="g838" />
      <g
         id="g840" />
      <g
         id="g842" />
      <g
         id="g844" />
      <g
         id="g846" />
      <g
         id="g848" />
      <g
         id="g850" />
      <g
         id="g852" />
      <g
         id="g854" />
      <g
         id="g856" />
      <g
         id="g858" />
      <path
         id="path2500"
         style="fill:#6d6d6d;fill-opacity:1;stroke:none;stroke-width:1px;stroke-linecap:butt;stroke-linejoin:miter;stroke-opacity:1"
         d="M 86.039062 136.27148 C 27.325613 136.37913 -1.8494956 181.60438 0.64648438 222.4043 C 3.1424643 263.20422 15.836319 311.39513 100.65234 312.01562 C 153.029 312.39882 171.125 270.85547 171.125 270.85547 L 179.70312 253.64062 L 192.36523 255.74219 L 216.36719 255.74219 L 216.29297 180.31641 L 197.45703 180.31641 L 175.50391 164.78906 C 154.25715 149.76089 136.61838 136.17878 86.039062 136.27148 z M 66.849609 184.68359 A 27.216011 27.216011 0 0 1 94.066406 211.89844 A 27.216011 27.216011 0 0 1 66.849609 239.11523 A 27.216011 27.216011 0 0 1 39.634766 211.89844 A 27.216011 27.216011 0 0 1 66.849609 184.68359 z "
         transform="translate(83.374281,-111.03408)" />
      <path
         id="path918-2"
         style="fill:#6d6d6d;fill-opacity:1;stroke:none;stroke-width:21.411;stroke-linecap:butt;stroke-linejoin:miter;stroke-miterlimit:4;stroke-dasharray:none;stroke-opacity:1"
         d="m 418.32691,-111.03024 c -111.42606,-0.71951 -119.03906,99.882808 -119.03906,99.882808 l 0.543,80.42969 h 135.63466 l 34.6758,34.673832 -23.2773,40.31836 h -22.3614 l -15.88752,26.14694 -20.81895,-22.72226 -19.1266,15.69776 -19.6289,-15.60556 -20.67269,23.39659 -18.2637,-26.47988 h -9.7637 l 0.9004,100.81334 239.63086,-1.52539 c 0,0 -0.5832,-220.057412 0,-259.348502 0.5833,-39.29108 -11.1188,-94.958228 -122.5449,-95.677728 z"
         sodipodi:nodetypes="scccccccccccccccss" />
      <path
         style="fill:#fffffc;fill-opacity:1;stroke:#6d6d6d;stroke-width:8.18268;stroke-linecap:round;stroke-linejoin:miter;stroke-miterlimit:4;stroke-dasharray:none;stroke-opacity:1"
         d="m 315.71086,99.16399 113.31088,-0.029"
         id="path4615"
         sodipodi:nodetypes="cc" />
    </g>
  </g>
</svg>
