<?xml version="1.0" encoding="UTF-8" standalone="no"?>
<!-- Created with Inkscape (http://www.inkscape.org/) -->

<svg
   width="121.05144mm"
   height="94.338631mm"
   viewBox="0 0 121.05144 94.338631"
   version="1.1"
   id="svg5"
   inkscape:version="1.1.1 (3bf5ae0, 2021-09-20)"
   sodipodi:docname="kttt-logo.svg"
   xmlns:inkscape="http://www.inkscape.org/namespaces/inkscape"
   xmlns:sodipodi="http://sodipodi.sourceforge.net/DTD/sodipodi-0.dtd"
   xmlns="http://www.w3.org/2000/svg"
   xmlns:svg="http://www.w3.org/2000/svg">
  <sodipodi:namedview
     id="namedview7"
     pagecolor="#ffffff"
     bordercolor="#666666"
     borderopacity="1.0"
     inkscape:pageshadow="2"
     inkscape:pageopacity="0.0"
     inkscape:pagecheckerboard="0"
     inkscape:document-units="mm"
     showgrid="false"
     inkscape:zoom="1.5554293"
     inkscape:cx="233.37609"
     inkscape:cy="61.397841"
     inkscape:window-width="3840"
     inkscape:window-height="2123"
     inkscape:window-x="4320"
     inkscape:window-y="573"
     inkscape:window-maximized="1"
     inkscape:current-layer="g883"
     fit-margin-top="0"
     fit-margin-left="0"
     fit-margin-right="0"
     fit-margin-bottom="0" />
  <defs
     id="defs2" />
  <g
     inkscape:label="Layer 1"
     inkscape:groupmode="layer"
     id="layer1"
     transform="translate(-36.554588,-47.715413)">
    <g
       id="g883"
       transform="matrix(0.26458333,0,0,0.26458333,14.495143,77.09318)">
      <g
         id="g830">
</g>
      <g
         id="g832">
</g>
      <g
         id="g834">
</g>
      <g
         id="g836">
</g>
      <g
         id="g838">
</g>
      <g
         id="g840">
</g>
      <g
         id="g842">
</g>
      <g
         id="g844">
</g>
      <g
         id="g846">
</g>
      <g
         id="g848">
</g>
      <g
         id="g850">
</g>
      <g
         id="g852">
</g>
      <g
         id="g854">
</g>
      <g
         id="g856">
</g>
      <g
         id="g858">
</g>
      <path
         style="fill:#000000;fill-opacity:1;stroke:#000000;stroke-width:1px;stroke-linecap:butt;stroke-linejoin:miter;stroke-opacity:1"
         d="M 84.021634,111.37104 C 81.525654,70.571118 110.6996,25.345478 169.41305,25.237828 c 50.57932,-0.0927 68.21895,13.4895 89.46571,28.51767 l 21.95159,15.52671 h 18.83757 l 0.0731,75.425832 h -24.00053 l -12.66309,-2.10089 -8.5784,17.21332 c 0,0 -18.09563,41.5434 -70.47229,41.1602 -84.816026,-0.6205 -97.509056,-48.80971 -100.005036,-89.60963 z"
         id="path2500"
         sodipodi:nodetypes="zssccccccsz" />
      <path
         id="path918-2"
         style="fill:#000000;fill-opacity:1;stroke:none;stroke-width:21.411;stroke-linecap:butt;stroke-linejoin:miter;stroke-miterlimit:4;stroke-dasharray:none;stroke-opacity:1"
         d="m 418.32691,-111.03024 c -111.42606,-0.71951 -119.03906,99.882808 -119.03906,99.882808 l 0.543,80.42969 h 135.63466 l 34.6758,34.673832 -23.2773,40.31836 h -22.3614 l -15.88752,26.14694 -20.81895,-22.72226 -19.1266,15.69776 -19.6289,-15.60556 -20.67269,23.39659 -18.2637,-26.47988 h -9.7637 l 0.9004,100.81334 239.63086,-1.52539 c 0,0 -0.5832,-220.057412 0,-259.348502 0.5833,-39.29108 -11.1188,-94.958228 -122.5449,-95.677728 z"
         sodipodi:nodetypes="scccccccccccccccss" />
      <circle
         style="fill:#fffffc;fill-opacity:1;stroke:none;stroke-width:21.411;stroke-miterlimit:4;stroke-dasharray:none;stroke-opacity:1;stop-color:#000000"
         id="path4160"
         cx="150.22438"
         cy="100.86497"
         r="27.216011" />
      <path
         style="fill:#fffffc;fill-opacity:1;stroke:#000000;stroke-width:8.18268;stroke-linecap:round;stroke-linejoin:miter;stroke-miterlimit:4;stroke-dasharray:none;stroke-opacity:1"
         d="m 315.71086,99.16399 113.31088,-0.029"
         id="path4615"
         sodipodi:nodetypes="cc" />
    </g>
  </g>
</svg>
