<?xml version="1.0" encoding="UTF-8" standalone="no"?>
<!-- Created with Inkscape (http://www.inkscape.org/) -->

<svg
   width="51.625011mm"
   height="40.276669mm"
   viewBox="0 0 51.625013 40.276669"
   version="1.1"
   id="svg5"
   inkscape:version="1.1.1 (3bf5ae0, 2021-09-20)"
   sodipodi:docname="kttt-logo.svg"
   xmlns:inkscape="http://www.inkscape.org/namespaces/inkscape"
   xmlns:sodipodi="http://sodipodi.sourceforge.net/DTD/sodipodi-0.dtd"
   xmlns="http://www.w3.org/2000/svg"
   xmlns:svg="http://www.w3.org/2000/svg">
  <sodipodi:namedview
     id="namedview7"
     pagecolor="#ffffff"
     bordercolor="#666666"
     borderopacity="1.0"
     inkscape:pageshadow="2"
     inkscape:pageopacity="0.0"
     inkscape:pagecheckerboard="0"
     inkscape:document-units="mm"
     showgrid="false"
     inkscape:zoom="2.56"
     inkscape:cx="332.42188"
     inkscape:cy="166.60156"
     inkscape:window-width="3840"
     inkscape:window-height="2123"
     inkscape:window-x="4320"
     inkscape:window-y="573"
     inkscape:window-maximized="1"
     inkscape:current-layer="g883"
     fit-margin-top="0"
     fit-margin-left="0"
     fit-margin-right="0"
     fit-margin-bottom="0" />
  <defs
     id="defs2" />
  <g
     inkscape:label="Layer 1"
     inkscape:groupmode="layer"
     id="layer1"
     transform="translate(-36.686568,-47.715413)">
    <g
       id="g883"
       transform="matrix(0.26458333,0,0,0.26458333,14.495143,77.09318)">
      <g
         id="g830"
         transform="matrix(0.42693716,0,0,0.42693716,48.064559,-63.629505)" />
      <g
         id="g832"
         transform="matrix(0.42693716,0,0,0.42693716,48.064559,-63.629505)" />
      <g
         id="g834"
         transform="matrix(0.42693716,0,0,0.42693716,48.064559,-63.629505)" />
      <g
         id="g836"
         transform="matrix(0.42693716,0,0,0.42693716,48.064559,-63.629505)" />
      <g
         id="g838"
         transform="matrix(0.42693716,0,0,0.42693716,48.064559,-63.629505)" />
      <g
         id="g840"
         transform="matrix(0.42693716,0,0,0.42693716,48.064559,-63.629505)" />
      <g
         id="g842"
         transform="matrix(0.42693716,0,0,0.42693716,48.064559,-63.629505)" />
      <g
         id="g844"
         transform="matrix(0.42693716,0,0,0.42693716,48.064559,-63.629505)" />
      <g
         id="g846"
         transform="matrix(0.42693716,0,0,0.42693716,48.064559,-63.629505)" />
      <g
         id="g848"
         transform="matrix(0.42693716,0,0,0.42693716,48.064559,-63.629505)" />
      <g
         id="g850"
         transform="matrix(0.42693716,0,0,0.42693716,48.064559,-63.629505)" />
      <g
         id="g852"
         transform="matrix(0.42693716,0,0,0.42693716,48.064559,-63.629505)" />
      <g
         id="g854"
         transform="matrix(0.42693716,0,0,0.42693716,48.064559,-63.629505)" />
      <g
         id="g856"
         transform="matrix(0.42693716,0,0,0.42693716,48.064559,-63.629505)" />
      <g
         id="g858"
         transform="matrix(0.42693716,0,0,0.42693716,48.064559,-63.629505)" />
      <path
         id="path2500"
         style="fill:#6d6d6d;fill-opacity:1;stroke:none;stroke-width:0.426937px;stroke-linecap:butt;stroke-linejoin:miter;stroke-opacity:1"
         d="m 120.39341,-52.854721 c -25.066952,0.04596 -37.52289,19.354299 -36.457264,36.773302 1.065627,17.4190016 6.485105,37.993492 42.696214,38.258402 22.36155,0.163603 30.0874,-17.5727974 30.0874,-17.5727974 l 3.66232,-7.3496592 5.40592,0.8972383 h 10.24733 l -0.0317,-32.2020687 h -8.04177 l -9.3726,-6.629203 c -9.07103,-6.416084 -16.60168,-12.214791 -38.19587,-12.175214 z m -8.19269,20.668929 a 11.619527,11.619527 0 0 1 11.61986,11.61903 11.619527,11.619527 0 0 1 -11.61986,11.6198596 11.619527,11.619527 0 0 1 -11.61903,-11.6198596 11.619527,11.619527 0 0 1 11.61903,-11.61903 z" />
      <path
         id="path918-2"
         style="fill:#6d6d6d;fill-opacity:1;stroke:none;stroke-width:9.14115;stroke-linecap:butt;stroke-linejoin:miter;stroke-miterlimit:4;stroke-dasharray:none;stroke-opacity:1"
         d="m 226.66386,-111.03244 c -47.57192,-0.30719 -50.82219,42.643682 -50.82219,42.643682 l 0.23182,34.338423 h 57.90748 l 14.80439,14.803548 -9.93795,17.2134061 h -9.54691 l -6.78297,11.1631005 -8.88839,-9.70097728 -8.16585,6.70195718 -8.38031,-6.66259358 -8.82594,9.98887378 -7.79745,-11.3052449 h -4.16849 l 0.38442,43.0409612 102.30732,-0.651245 c 0,0 -0.24899,-93.950688 0,-110.725514 0.24903,-16.774823 -4.74703,-40.541197 -52.31898,-40.848377 z"
         sodipodi:nodetypes="scccccccccccccccss" />
      <path
         style="fill:#fffffc;fill-opacity:1;stroke:#6d6d6d;stroke-width:3.49349;stroke-linecap:round;stroke-linejoin:miter;stroke-miterlimit:4;stroke-dasharray:none;stroke-opacity:1"
         d="m 182.85326,-21.292713 48.37662,-0.01238"
         id="path4615"
         sodipodi:nodetypes="cc" />
    </g>
  </g>
</svg>
